<?xml version="1.0" encoding="UTF-8"?>
<svg width="52px" height="52px" viewBox="0 0 52 52" version="1.1" xmlns="http://www.w3.org/2000/svg" xmlns:xlink="http://www.w3.org/1999/xlink">
    <!-- Generator: Sketch 54.1 (76490) - https://sketchapp.com -->
    <title>noun_comment_930803</title>
    <desc>Created with Sketch.</desc>
    <g id="Symbols" stroke="none" stroke-width="1" fill="none" fill-rule="evenodd">
        <g id="0.6.1/stickComment" transform="translate(-1346.000000, -20.000000)" fill="#000000" fill-rule="nonzero">
            <g id="noun_comment_930803" transform="translate(1346.000000, 20.000000)">
                <path d="M25.9,0.1 C11.6,0.1 0,11.7 0,26 L0,51.9 L26.1,51.9 C40.4,51.9 52,40.3 52,26 C52,11.998 40.774,0.1 25.9,0.1 Z M31,33 L11,33 L11,31 L31,31 L31,33 Z M41,27 L11,27 L11,25 L41,25 L41,27 Z M41,21 L11,21 L11,19 L41,19 L41,21 Z" id="Shape"></path>
            </g>
        </g>
    </g>
</svg>