<?xml version="1.0" encoding="UTF-8"?>
<svg width="16px" height="19px" viewBox="0 0 16 19" version="1.1" xmlns="http://www.w3.org/2000/svg" xmlns:xlink="http://www.w3.org/1999/xlink">
    <!-- Generator: Sketch 54.1 (76490) - https://sketchapp.com -->
    <title>Shape</title>
    <desc>Created with Sketch.</desc>
    <g id="Symbols" stroke="none" stroke-width="1" fill="none" fill-rule="evenodd">
        <g id="playbar/voiceOver" transform="translate(-365.000000, -11.000000)" fill="#FFFFFF" fill-rule="nonzero">
            <g id="Bar">
                <g id="music_volume_down" transform="translate(365.000000, 10.000000)">
                    <path d="M4.00991547,14.9 L1,14.9 C0.44771525,14.9 -4.05009359e-13,14.4522847 -4.05009359e-13,13.9 L-4.05009359e-13,7.1 C-4.05009359e-13,6.54771525 0.44771525,6.1 1,6.1 L4.00991547,6.1 L8.85075579,1.2905937 C9.48165577,0.663790483 10.5555556,1.11066483 10.5555556,2 L10.5555556,19 C10.5555556,19.8893352 9.48165577,20.3362095 8.85075579,19.7094063 L4.00991547,14.9 Z M2,12.9 L4.42222222,12.9 C4.68631016,12.9 4.93967634,13.0044646 5.12702198,13.1905937 L8.55555556,16.5968641 L8.55555556,4.40313593 L5.12702198,7.8094063 C4.93967634,7.99553541 4.68631016,8.1 4.42222222,8.1 L2,8.1 L2,12.9 Z M11.837037,14.3333333 C11.2847523,14.3333333 10.837037,13.8856181 10.837037,13.3333333 C10.837037,12.7810486 11.2847523,12.3333333 11.837037,12.3333333 C12.860998,12.3333333 13.6888889,11.5108183 13.6888889,10.5 C13.6888889,9.48918167 12.860998,8.66666667 11.837037,8.66666667 C11.2847523,8.66666667 10.837037,8.21895142 10.837037,7.66666667 C10.837037,7.11438192 11.2847523,6.66666667 11.837037,6.66666667 C13.9626613,6.66666667 15.6888889,8.38168499 15.6888889,10.5 C15.6888889,12.618315 13.9626613,14.3333333 11.837037,14.3333333 Z" id="Shape"></path>
                </g>
            </g>
        </g>
    </g>
</svg>