<svg height="488pt" viewBox="0 -9 488.01251 488" width="488pt" xmlns="http://www.w3.org/2000/svg"><path d="m480.375 94.117188v111.609374h-107.6875l57.808594-111.609374zm0 0" fill="#00acea"/><path d="m464.695312 415.226562v46.238282h-126.878906v-46.238282zm0 0" fill="#00efd1"/><path d="m372.507812 94.117188h57.988282l-57.808594 111.609374h-78.792969l57.8125-111.609374zm0 0" fill="#00efd1"/><path d="m430.007812 205.726562v209.5h-57.5v-209.5zm0 0" fill="#fedb41"/><path d="m372.507812 47.097656h57.5v47.019532h-57.5zm0 0" fill="#fedb41"/><path d="m430.007812 36.757812v10.339844h-57.5v-10.339844c0-15.878906 12.871094-28.75 28.75-28.75 15.875 0 28.75 12.871094 28.75 28.75zm0 0" fill="#00efd1"/><path d="m351.707031 94.117188-57.8125 111.609374h-78.796875l57.820313-111.609374zm0 0" fill="#00acea"/><path d="m272.917969 94.117188-57.820313 111.609374h-78.792968l57.8125-111.609374zm0 0" fill="#00efd1"/><path d="m115.507812 94.117188h78.609376l-57.8125 111.609374h-78.789063l57.8125-111.609374zm0 0" fill="#00acea"/><path d="m150.195312 415.226562v46.238282h-126.878906v-46.238282zm0 0" fill="#00efd1"/><path d="m115.507812 205.726562v209.5h-57.5v-209.5zm0 0" fill="#fedb41"/><path d="m115.507812 47.097656v47.019532h-57.5v-47.019532zm0 0" fill="#fedb41"/><path d="m115.507812 36.757812v10.339844h-57.5v-10.339844c0-15.878906 12.871094-28.75 28.75-28.75 15.875 0 28.75 12.871094 28.75 28.75zm0 0" fill="#00efd1"/><path d="m115.328125 94.117188-57.8125 111.609374h-49.878906v-111.609374zm0 0" fill="#00efd1"/><path d="m480.375 85.738281h-42.367188v-48.980469c.027344-9.753906-3.851562-19.109374-10.765624-25.988281-10.589844-10.503906-26.4375-13.648437-40.234376-7.976562-13.796874 5.667969-22.859374 19.046875-23 33.964843v48.980469h-241v-48.980469c.113282-9.71875-3.671874-19.074218-10.507812-25.980468s-16.152344-10.7851565-25.867188-10.7695315c-20.265624.03125-36.664062 16.4843755-36.625 36.7499995v48.980469h-42.371093c-4.417969 0-7.6289065 3.960938-7.6289065 8.378907v111.609374c-.0859375 2.082032.6796875 4.113282 2.1171875 5.621094 1.4375 1.507813 3.425781 2.371094 5.511719 2.390625h42.371093v193h-26.691406c-4.570312.203125-8.203125 3.914063-8.308594 8.488281v46.238282c.121094 4.535156 3.777344 8.171875 8.308594 8.273437h126.878906c4.433594-.144531 7.917969-3.839843 7.8125-8.273437v-46.238282c0-4.417968-3.394531-8.488281-7.8125-8.488281h-27.1875v-193h241v193h-26.191406c-4.417968 0-7.808594 4.070313-7.808594 8.488281v46.238282c-.109374 4.433594 3.375 8.128906 7.808594 8.273437h126.878906c4.53125-.101562 8.1875-3.738281 8.3125-8.273437v-46.238282c-.109374-4.574218-3.738281-8.285156-8.3125-8.488281h-26.6875v-193h42.367188c2.085938-.019531 4.074219-.882812 5.511719-2.390625 1.4375-1.507812 2.203125-3.539062 2.121093-5.621094v-111.609374c0-4.417969-3.214843-8.378907-7.632812-8.378907zm-173.324219 112 49.519531-96h60.773438l-49.523438 96zm-126.085937-96-49.523438 96h-60.773437l49.523437-96zm18.015625 0h60.78125l-49.53125 96h-60.769531zm78.800781 0h60.773438l-49.523438 96h-60.78125zm123.226562-85.730469c11.507813-.023437 20.882813 9.238282 21 20.75v1.980469h-42v-1.980469c.128907-11.503906 9.496094-20.757812 21-20.75zm-21 38.730469h42v31h-42zm-293.25-38.730469c5.429688-.015624 10.636719 2.179688 14.421876 6.074219 3.835937 3.910157 5.933593 9.199219 5.828124 14.675781v1.980469h-41v-1.980469c.011719-11.457031 9.292969-20.738281 20.75-20.75zm-20.75 38.730469h41v31h-41zm-50 47h86.164063l-49.523437 96h-36.640626zm126 352h-111v-31h111zm-35-47h-41v-193h41zm350 47h-111v-31h111zm-35-47h-42v-193h42zm50-209h-86.167968l49.523437-96h36.644531zm0 0" fill="#083863"/></svg>