<?xml version="1.0" encoding="UTF-8"?>
<svg width="192px" height="192px" viewBox="0 0 192 192" version="1.1" xmlns="http://www.w3.org/2000/svg" xmlns:xlink="http://www.w3.org/1999/xlink">
    <!-- Generator: Sketch 54.1 (76490) - https://sketchapp.com -->
    <title>Rectangle</title>
    <desc>Created with Sketch.</desc>
    <g id="all-together-1" stroke="none" stroke-width="1" fill="none" fill-rule="evenodd">
        <g id="Artboard" transform="translate(-49.000000, -19.000000)">
            <circle id="Oval" fill="#000000" cx="65" cy="35" r="2"></circle>
            <circle id="Oval-Copy-8" fill="#000000" cx="65" cy="67" r="2"></circle>
            <circle id="Oval-Copy" fill="#000000" cx="97" cy="35" r="2"></circle>
            <circle id="Oval-Copy-9" fill="#000000" cx="97" cy="67" r="2"></circle>
            <circle id="Oval-Copy-2" fill="#000000" cx="129" cy="35" r="2"></circle>
            <circle id="Oval-Copy-10" fill="#000000" cx="129" cy="67" r="2"></circle>
            <circle id="Oval-Copy-3" fill="#000000" cx="161" cy="35" r="2"></circle>
            <circle id="Oval-Copy-11" fill="#000000" cx="161" cy="67" r="2"></circle>
            <circle id="Oval-Copy-4" fill="#000000" cx="193" cy="35" r="2"></circle>
            <circle id="Oval-Copy-12" fill="#000000" cx="193" cy="67" r="2"></circle>
            <circle id="Oval-Copy-5" fill="#000000" cx="225" cy="35" r="2"></circle>
            <circle id="Oval-Copy-13" fill="#000000" cx="225" cy="67" r="2"></circle>
            <circle id="Oval-Copy-19" fill="#000000" cx="65" cy="99" r="2"></circle>
            <circle id="Oval-Copy-18" fill="#000000" cx="97" cy="99" r="2"></circle>
            <circle id="Oval-Copy-17" fill="#000000" cx="129" cy="99" r="2"></circle>
            <circle id="Oval-Copy-16" fill="#000000" cx="161" cy="99" r="2"></circle>
            <circle id="Oval-Copy-15" fill="#000000" cx="193" cy="99" r="2"></circle>
            <circle id="Oval-Copy-14" fill="#000000" cx="225" cy="99" r="2"></circle>
            <circle id="Oval-Copy-25" fill="#000000" cx="65" cy="131" r="2"></circle>
            <circle id="Oval-Copy-24" fill="#000000" cx="97" cy="131" r="2"></circle>
            <circle id="Oval-Copy-23" fill="#000000" cx="129" cy="131" r="2"></circle>
            <circle id="Oval-Copy-22" fill="#000000" cx="161" cy="131" r="2"></circle>
            <circle id="Oval-Copy-21" fill="#000000" cx="193" cy="131" r="2"></circle>
            <circle id="Oval-Copy-20" fill="#000000" cx="225" cy="131" r="2"></circle>
            <circle id="Oval-Copy-31" fill="#000000" cx="65" cy="163" r="2"></circle>
            <circle id="Oval-Copy-30" fill="#000000" cx="97" cy="163" r="2"></circle>
            <circle id="Oval-Copy-29" fill="#000000" cx="129" cy="163" r="2"></circle>
            <circle id="Oval-Copy-28" fill="#000000" cx="161" cy="163" r="2"></circle>
            <circle id="Oval-Copy-27" fill="#000000" cx="193" cy="163" r="2"></circle>
            <circle id="Oval-Copy-26" fill="#000000" cx="225" cy="163" r="2"></circle>
            <circle id="Oval-Copy-37" fill="#000000" cx="65" cy="195" r="2"></circle>
            <circle id="Oval-Copy-36" fill="#000000" cx="97" cy="195" r="2"></circle>
            <circle id="Oval-Copy-35" fill="#000000" cx="129" cy="195" r="2"></circle>
            <circle id="Oval-Copy-34" fill="#000000" cx="161" cy="195" r="2"></circle>
            <circle id="Oval-Copy-33" fill="#000000" cx="193" cy="195" r="2"></circle>
            <circle id="Oval-Copy-32" fill="#000000" cx="225" cy="195" r="2"></circle>
            <rect id="Rectangle" x="49" y="19" width="192" height="192"></rect>
        </g>
    </g>
</svg>