<?xml version="1.0" encoding="UTF-8"?>
<svg width="973px" height="268px" viewBox="0 0 973 268" version="1.1" xmlns="http://www.w3.org/2000/svg" xmlns:xlink="http://www.w3.org/1999/xlink">
    <!-- Generator: Sketch 54.1 (76490) - https://sketchapp.com -->
    <title>PROPEN</title>
    <desc>Created with Sketch.</desc>
    <g id="all-together-1" stroke="none" stroke-width="1" fill="none" fill-rule="evenodd">
        <path d="M87.9902306,211.126723 C87.6441298,222.443145 78.1897217,231.336332 66.8732914,230.990231 C55.5563286,230.643598 46.6636687,221.189197 47.0097694,209.873307 C47.3564027,198.556352 56.8102783,189.663165 68.1267086,190.009798 C79.4436714,190.355899 88.3363313,199.810301 87.9902306,211.126723 Z M40.6161185,25 L71.4765526,33.2526753 C66.1559716,53.2545513 66.8618336,69.8469014 73.5755071,82.5680412 C78.3254365,91.5684851 84.6675477,96.1821266 93.2762955,101.953448 C93.639873,101.710597 94.0023858,101.46828 94.3611724,101.228631 C101.605573,96.3934873 106.391701,93.1985246 109.916219,86.5193124 C114.698088,77.4580222 115.147902,65.4403507 111.25395,50.7993511 L142.114384,42.5472095 C148.149877,65.2380635 146.81534,85.0718117 138.146972,101.496568 C132.806163,111.617864 126.046177,117.896238 119.360716,122.835994 C120.051141,123.589634 120.740501,124.358218 121.426135,125.159361 C141.603886,148.748498 149.414147,183.012419 144.640263,227 L112.888186,223.536033 C116.668753,188.695674 111.384902,162.611839 97.1824909,146.007747 C96.3818753,145.072102 95.5658222,144.18396 94.7369933,143.329978 C89.4020396,151.160465 86.2927336,161.431208 85.4229158,174.026386 C80.5973964,170.999551 74.9409188,169.168292 68.8527263,168.981483 C63.3825623,168.813889 58.1806896,169.995054 53.5526625,172.211139 C54.8281115,153.063245 60.037969,136.980616 69.1417784,124.151127 C60.6464156,117.978434 52.0179717,110.190645 45.3447548,97.5458302 C34.7451142,77.4596234 33.153997,53.0517304 40.6161185,25 Z" id="Combined-Shape" fill="#21DCF2"></path>
        <text id="PROPEN" font-family="Georgia-Bold, Georgia" font-size="160" font-weight="bold" fill="#FFFFFF">
            <tspan x="205" y="184">PROPEN</tspan>
        </text>
    </g>
</svg>